<svg width="106" height="11" viewBox="0 0 106 11" fill="none" xmlns="http://www.w3.org/2000/svg">
    <path fill-rule="evenodd" clip-rule="evenodd" d="M63.4398 5.02076C49.5232 5.18822 35.5997 5.85255 21.7438 7.04C15.1562 7.60467 7.50604 7.53408 1.11692 9.4592C0.798564 9.55608 0.859193 9.84672 0.866084 9.87578C0.879865 9.93529 0.937762 10.1332 1.19134 10.1429C1.21891 10.1443 1.41321 10.1166 1.48763 10.1069C3.37433 9.85778 5.25413 9.56716 7.1422 9.33188C13.6609 8.51672 20.1988 7.90085 26.7464 7.3611C35.4371 6.64419 44.2021 6.2622 52.9162 5.96326C57.686 5.79995 62.5702 6.01723 67.3551 5.67954C69.1123 5.66985 70.8694 5.66849 72.6266 5.67403C79.9721 5.70033 87.3094 5.97989 94.6426 6.36325C97.0006 6.48642 98.7991 6.61929 101.107 6.70925C101.984 6.74385 103.375 6.76738 104.342 6.7826C104.484 6.78537 104.846 6.78811 104.997 6.78949C105.012 6.79226 105.027 6.79226 105.044 6.79226C105.101 6.79226 105.129 6.78811 105.134 6.78811C105.462 6.73967 105.432 6.42828 105.424 6.38123C105.422 6.37154 105.373 6.10858 105.09 6.09889C105.023 6.09612 104.539 6.09338 104.353 6.09061C103.391 6.07539 102.006 6.05186 101.134 6.01864C98.8294 5.92868 97.0323 5.79582 94.6784 5.67265C87.3342 5.28928 79.9859 5.00834 72.6293 4.98204C71.7308 4.97927 70.8308 4.97789 69.9323 4.97927C69.902 4.90038 69.8344 4.81181 69.6856 4.77306C69.5464 4.73707 68.55 4.70525 68.1655 4.67341C65.3196 4.43814 65.4037 4.44921 62.2725 4.25684C57.5303 3.96482 56.8081 3.89835 51.8757 3.77518C42.9163 3.55097 33.9528 3.56899 24.9921 3.59113C20.5682 3.60359 15.8315 3.90391 11.3401 3.34339C12.8202 3.16901 14.3058 3.04169 15.7887 2.89637C20.8521 2.40091 25.9196 2.09365 31.0036 1.87775C43.1988 1.36014 55.4134 1.15394 67.6046 1.85977C65.0095 1.88468 62.4158 1.94279 59.8208 1.98016C49.2572 2.13517 38.5917 2.01892 28.0502 2.82302C27.8614 2.83824 27.7194 3.00431 27.7332 3.19391C27.747 3.3849 27.9137 3.52746 28.1025 3.51362C38.6303 2.70953 49.2806 2.82716 59.8304 2.67215C63.7499 2.61541 67.668 2.513 71.5874 2.54345C72.9325 2.55452 74.2776 2.60435 75.6227 2.62096C75.8887 2.62511 76.5736 2.6777 76.6715 2.65556C76.8878 2.60712 76.9347 2.44657 76.9484 2.36768C76.9553 2.32063 76.9774 2.04937 76.6466 1.95249C74.3892 1.29094 70.2231 1.32139 68.0291 1.1913C55.6877 0.457787 43.3215 0.662611 30.9746 1.18576C25.8782 1.40304 20.7983 1.71169 15.7212 2.20854C13.9475 2.38153 12.1697 2.531 10.4029 2.76074C10.1176 2.79811 9.4768 2.8521 9.16672 2.90884C9.03717 2.93237 8.94345 2.96556 8.90211 2.98909C8.74086 3.08043 8.71192 3.21329 8.71192 3.30325C8.71054 3.37245 8.73949 3.61603 9.07714 3.68246C14.2218 4.69415 19.8198 4.29696 24.9934 4.28312C33.9487 4.26098 42.9053 4.24296 51.8592 4.46717C56.7792 4.59034 57.4986 4.65542 62.2312 4.94744C62.6983 4.97512 63.0939 5 63.4398 5.02076Z" fill="black"/>
</svg>
