<?xml version="1.0" standalone="no"?>
<!DOCTYPE svg PUBLIC "-//W3C//DTD SVG 20010904//EN"
 "http://www.w3.org/TR/2001/REC-SVG-20010904/DTD/svg10.dtd">
<svg version="1.0" xmlns="http://www.w3.org/2000/svg"
 width="700.000000pt" height="700.000000pt" viewBox="0 0 700.000000 700.000000"
 preserveAspectRatio="xMidYMid meet">
<metadata>
Created by potrace 1.14, written by Peter Selinger 2001-2017
</metadata>
<g transform="translate(0.000000,700.000000) scale(0.100000,-0.100000)"
fill="#000000" stroke="none">
<path d="M3278 6995 c-1 -1 -42 -5 -89 -9 -47 -4 -95 -8 -105 -10 -10 -2 -41
-7 -69 -10 -335 -44 -715 -158 -1030 -312 -180 -87 -448 -247 -555 -331 -8 -6
-51 -40 -95 -74 -353 -275 -673 -651 -897 -1054 -48 -86 -148 -289 -148 -301
0 -2 -11 -27 -24 -56 -60 -133 -155 -432 -181 -569 -3 -13 -11 -58 -20 -99
-29 -147 -36 -200 -52 -370 -15 -165 -8 -592 12 -711 2 -13 6 -46 9 -74 9 -78
22 -152 51 -285 21 -96 91 -339 114 -395 5 -11 25 -65 46 -120 63 -166 249
-531 312 -610 4 -6 34 -49 65 -95 52 -78 214 -285 263 -336 192 -203 294 -298
445 -419 92 -74 370 -265 386 -265 4 0 15 -6 23 -14 26 -22 298 -158 411 -205
267 -111 589 -200 859 -237 25 -3 57 -8 71 -10 163 -25 682 -25 842 1 13 2 46
7 73 10 72 10 86 12 120 19 17 3 44 8 60 11 194 37 411 101 622 184 130 52
418 192 473 231 15 11 33 20 39 20 6 0 11 5 11 10 0 6 5 10 10 10 15 0 220
141 330 227 152 118 324 280 450 422 36 41 70 79 76 85 6 6 48 61 94 121 152
200 276 403 388 638 29 59 52 110 52 113 0 3 8 24 19 47 53 118 147 417 177
562 17 81 54 301 59 350 4 33 9 71 11 85 9 46 11 524 4 605 -15 153 -21 210
-25 225 -2 8 -7 35 -10 60 -17 129 -80 384 -136 552 -348 1037 -1167 1857
-2204 2206 -168 57 -420 119 -555 137 -19 3 -46 7 -60 10 -13 2 -52 7 -86 11
-33 3 -74 8 -90 10 -32 5 -540 14 -546 9z m382 -1319 c334 -52 669 -231 840
-448 22 -27 40 -46 41 -41 0 4 0 89 0 188 0 99 2 187 5 196 4 13 31 15 212 14
l207 -1 0 -1309 0 -1310 -212 -3 -211 -2 0 207 c0 115 -1 217 -1 227 -1 11
-23 -18 -53 -70 -63 -106 -223 -272 -338 -351 -215 -146 -436 -216 -675 -214
-234 2 -472 65 -685 183 -776 430 -994 1445 -463 2157 234 313 597 525 988
577 28 3 51 7 52 8 6 5 253 -2 293 -8z m1266 -3155 c8 -1 9 -12 3 -38 -4 -21
-10 -52 -13 -69 -18 -99 -93 -280 -166 -399 -275 -449 -753 -711 -1279 -699
-69 1 -143 5 -164 8 -432 66 -793 296 -1045 668 l-32 47 160 160 161 160 41
-77 c194 -369 602 -584 1023 -540 33 4 67 9 75 12 8 3 29 7 45 10 49 7 175 55
245 93 145 80 256 174 353 304 77 103 166 285 167 341 0 9 4 18 10 20 8 2 379
2 416 -1z"/>
<path d="M3375 5255 c-253 -32 -469 -142 -639 -326 -132 -142 -231 -339 -261
-519 -4 -25 -9 -54 -11 -65 -6 -32 -5 -206 1 -255 12 -85 55 -232 91 -308 145
-306 413 -513 759 -588 50 -10 300 -14 336 -4 19 5 50 11 69 14 165 25 373
139 518 284 158 159 257 355 292 577 11 71 15 246 6 287 -3 13 -8 39 -10 58
-3 19 -12 60 -21 90 -145 502 -619 819 -1130 755z"/>
</g>
</svg>
